<?xml version="1.0" encoding="utf-8"?>
<!-- Generator: Adobe Illustrator 28.1.0, SVG Export Plug-In . SVG Version: 6.00 Build 0)  -->
<svg version="1.1" id="Capa_1" xmlns="http://www.w3.org/2000/svg" xmlns:xlink="http://www.w3.org/1999/xlink" x="0px" y="0px"
	 viewBox="0 0 128 128" style="enable-background:new 0 0 128 128;" xml:space="preserve">
<style type="text/css">
	.st0{fill:#FFFFFF;}
</style>
<path class="st0" d="M74,128H52.1c-1.5,0-2.7-1.2-2.7-2.7V73.1H34.3c-1.5,0-2.7-1.2-2.7-2.7V48.7c0-1.5,1.2-2.7,2.7-2.7h15.2V31.5
	C49.5,12.1,60.9,0,79.4,0C87.1,0,93.9,0.6,96,0.9c1.3,0.2,2.3,1.3,2.3,2.6V23c0,1.5-1.2,2.7-2.7,2.7H84.5c-6.7,0-7.8,2.5-7.8,7.9V46
	h17.1c1.5,0,2.7,1.2,2.7,2.7c0,0.1,0,0.2,0,0.3l-2.7,21.8c-0.2,1.3-1.3,2.3-2.6,2.3H76.7v52.2C76.7,126.8,75.5,128,74,128
	C74,128,74,128,74,128L74,128z M54.8,122.7h16.5V70.5c0-1.5,1.2-2.7,2.7-2.7h14.7l2.1-16.5H74c-1.5,0-2.7-1.2-2.7-2.7v-15
	c0-6.2,1.5-13.3,13.1-13.3H93V5.9c-4.5-0.4-9.1-0.6-13.7-0.6c-15.4,0-24.5,9.8-24.5,26.2v17.2c0,1.5-1.2,2.7-2.7,2.7H37v16.5h15.2
	c1.5,0,2.7,1.2,2.7,2.7L54.8,122.7L54.8,122.7z"/>
</svg>
