<?xml version="1.0" encoding="utf-8"?>
<!-- Generator: Adobe Illustrator 28.1.0, SVG Export Plug-In . SVG Version: 6.00 Build 0)  -->
<svg version="1.1" id="Capa_1" xmlns="http://www.w3.org/2000/svg" xmlns:xlink="http://www.w3.org/1999/xlink" x="0px" y="0px"
	 viewBox="0 0 128 128" style="enable-background:new 0 0 128 128;" xml:space="preserve">
<style type="text/css">
	.st0{fill:#FFFFFF;}
</style>
<path class="st0" d="M102.7,128H25.3C11.3,128,0,116.7,0,102.7V25.3C0,11.3,11.3,0,25.3,0h77.3c14,0,25.3,11.3,25.3,25.3v77.3
	C128,116.7,116.7,128,102.7,128z M25.3,8C15.8,8,8,15.8,8,25.3v77.3c0,9.6,7.8,17.3,17.3,17.3h77.3c9.6,0,17.3-7.8,17.3-17.3V25.3
	c0-9.6-7.8-17.3-17.3-17.3H25.3z"/>
<path class="st0" d="M64,96.7C46,96.7,31.3,82,31.3,64S46,31.3,64,31.3S96.7,46,96.7,64S82,96.7,64,96.7L64,96.7z M64,39.3
	c-13.6,0-24.7,11.1-24.7,24.7S50.4,88.7,64,88.7S88.7,77.6,88.7,64S77.6,39.3,64,39.3z M97.9,39.3c-5.1,0-9.2-4.1-9.2-9.2
	c0-5.1,4.1-9.2,9.2-9.2s9.2,4.1,9.2,9.2C107.1,35.2,103,39.3,97.9,39.3C97.9,39.3,97.9,39.3,97.9,39.3z M97.9,28.9
	c-0.7,0-1.2,0.5-1.2,1.2c0,1.3,2.4,1.3,2.4,0C99.1,29.4,98.6,28.9,97.9,28.9z"/>
</svg>
