<?xml version="1.0" encoding="utf-8"?>
<!-- Generator: Adobe Illustrator 28.1.0, SVG Export Plug-In . SVG Version: 6.00 Build 0)  -->
<svg version="1.1" id="Capa_1" xmlns="http://www.w3.org/2000/svg" xmlns:xlink="http://www.w3.org/1999/xlink" x="0px" y="0px"
	 viewBox="0 0 200 200" style="enable-background:new 0 0 200 200;" xml:space="preserve">
<style type="text/css">
	.st0{fill:#FFFFFF;}
	.st1{fill:#FFFB01;}
</style>
<g>
	<path class="st0" d="M124.6,100c0,11.1-11.4,12.2-20,11.4l0-22.8C113.2,87.9,124.6,89,124.6,100 M136.5,100.1
		c-1.2-25.4-24.8-24.2-43.8-23.5v46.7C112.3,123.8,134.7,126.1,136.5,100.1"/>
	<rect x="70.8" y="76.7" class="st0" width="12" height="46.7"/>
	<polyline class="st0" points="17.3,91.2 30.4,123.4 42.2,123.4 61.5,76.7 48,76.7 36.2,106.9 30.3,91.2 17.1,91.2 	"/>
	<path class="st1" d="M3.1,76.9c2.5,4.1,1.9,11.1,8.9,11.9c1.9,0,14.8,0,17.4,0c-2.5-4.1-1.9-11.1-8.9-11.9
		C18.9,76.8,5.3,76.9,3.1,76.9"/>
	<polyline class="st0" points="182.7,108.8 169.6,76.7 157.8,76.7 138.5,123.4 152,123.4 163.8,93.1 169.7,108.8 182.9,108.8 	"/>
	<path class="st1" d="M196.9,123.2c-2.5-4.1-1.9-11.1-8.9-11.9c-1.9,0-14.8,0-17.4,0c2.5,4.1,1.9,11.1,8.9,11.9
		C181.1,123.2,194.7,123.2,196.9,123.2"/>
</g>
<g>
</g>
<g>
</g>
<g>
</g>
<g>
</g>
<g>
</g>
<g>
</g>
<g>
</g>
<g>
</g>
<g>
</g>
<g>
</g>
<g>
</g>
<g>
</g>
<g>
</g>
<g>
</g>
<g>
</g>
</svg>
