<?xml version="1.0" encoding="utf-8"?>
<!-- Generator: Adobe Illustrator 28.1.0, SVG Export Plug-In . SVG Version: 6.00 Build 0)  -->
<svg version="1.1" id="Flat" xmlns="http://www.w3.org/2000/svg" xmlns:xlink="http://www.w3.org/1999/xlink" x="0px" y="0px"
	 viewBox="0 0 800 800" style="enable-background:new 0 0 800 800;" xml:space="preserve">
<style type="text/css">
	.st0{fill:#FFFFFF;}
</style>
<path class="st0" d="M700,250c-89.7-0.1-162.4-72.8-162.5-162.5c0-6.9-5.6-12.5-12.5-12.5H400c-6.9,0-12.5,5.6-12.5,12.5v400
	c0,41.4-33.6,75-75,75c-41.4,0-75-33.6-75-75c0-29,16.7-55.3,42.9-67.7c4.4-2.1,7.1-6.5,7.1-11.3l0-130.1c0-6.9-5.6-12.5-12.5-12.5
	c-0.7,0-1.5,0.1-2.2,0.2C150.5,287.9,69.1,404.8,91,527.2S229.8,730.9,352.2,709c107.3-19.2,185.3-112.5,185.3-221.5l0-133
	c48.9,29.9,105.2,45.6,162.5,45.5c6.9,0,12.5-5.6,12.5-12.5v-125C712.5,255.6,706.9,250,700,250z M687.5,374.7
	c-55.9-2.3-109.9-21-155.2-53.7c-5.6-4-13.4-2.8-17.4,2.8c-1.5,2.1-2.4,4.7-2.4,7.3l0,156.3c0,110.5-89.6,200-200.1,199.9
	s-200-89.6-199.9-200.1c0-91.2,61.7-170.8,150-193.6l0,107.1c-47.8,27.6-64.2,88.8-36.6,136.6c27.6,47.8,88.8,64.2,136.6,36.6
	c30.9-17.9,50-50.9,50-86.6V100h100.4c6.4,93.6,80.9,168.2,174.6,174.6V374.7z"/>
</svg>
